<?xml version="1.0" encoding="utf-8"?>
<!-- Generator: Adobe Illustrator 22.0.1, SVG Export Plug-In . SVG Version: 6.00 Build 0)  -->
<svg version="1.1" id="Layer_1" xmlns="http://www.w3.org/2000/svg" xmlns:xlink="http://www.w3.org/1999/xlink" x="0px" y="0px"
	 viewBox="0 0 390 90" style="enable-background:new 0 0 390 90;" xml:space="preserve">
<style type="text/css">
	.st0{fill:none;stroke:#000000;stroke-width:2;stroke-miterlimit:10;}
	.st1{font-family:'Poppins-Medium';}
	.st2{font-size:16px;}
	.st3{fill:none;stroke:#000000;stroke-width:2;stroke-linecap:square;stroke-miterlimit:10;}
</style>
<polyline class="st0" points="230.8,35.4 224.3,54.5 347.3,35.5 "/>
<g>
	<rect x="189.2" y="1" class="st0" width="83.2" height="28.7"/>
	<text transform="matrix(1 0 0 1 195.2764 21.2432)" class="st1 st2">Animism</text>
</g>
<text transform="matrix(1 0 0 1 11.1792 21.2432)" class="st1 st2">Material Respect</text>
<path class="st3" d="M91.6,60.4c7.9,0,14.3,6.4,14.3,14.3l0,0c0,7.9-6.4,14.3-14.3,14.3"/>
<path class="st3" d="M15.3,89C7.4,89,1,82.6,1,74.7l0,0c0-7.9,6.4-14.3,14.3-14.3"/>
<path class="st3" d="M141.6,29.6c7.9,0,14.3-6.4,14.3-14.3l0,0c0-7.9-6.4-14.3-14.3-14.3"/>
<path class="st3" d="M15.3,1C7.4,1,1,7.4,1,15.3l0,0c0,7.9,6.4,14.3,14.3,14.3"/>
<text transform="matrix(1 0 0 1 10.7949 80.5762)" class="st1 st2">Spirituality</text>
<g>
	<rect x="305.8" y="1" class="st0" width="83.2" height="28.7"/>
	<text transform="matrix(1 0 0 1 312.623 21.2432)" class="st1 st2">Activism</text>
</g>
<g>
	<path class="st0" d="M203.5,89c-7.9,0-14.3-6.4-14.3-14.3l0,0c0-7.9,6.4-14.3,14.3-14.3l41.7-0.1c7.9,0,14.3,6.4,14.3,14.3l0,0
		c0,7.9-6.4,14.3-14.3,14.3L203.5,89z"/>
	<text transform="matrix(1 0 0 1 199.1807 80.2002)" class="st1 st2">Anism</text>
</g>
<polyline class="st0" points="161.8,15.3 183.3,15.3 111.8,74.7 "/>
<path class="st3" d="M91.6,89"/>
<path class="st3" d="M15.3,89"/>
</svg>
